<?xml version="1.0" encoding="UTF-8"?><svg id="Layer_2" xmlns="http://www.w3.org/2000/svg" viewBox="0 0 49.68 44.43"><g id="Layer_9"><path d="M22.18,18.17h13.45c1.45,0,2.61,1.31,2.58,2.91,0,.16,0,.31,0,.47h11.48v-4.75c0-4.87-3.61-8.86-8.01-8.86h-19.49V0L0,14.43l22.18,9.66v-5.93Z"/><path d="M38.34,28.91c0,.3.02.6.03.93.05,1.61-1.12,2.94-2.58,2.94H13.83c-.54,0,6.37,11.65,6.37,11.65h21.47c4.41,0,8.01-3.99,8.01-8.86v-6.66h-11.34Z"/><path d="M49.68,24.09h-11.48c.01.77.03,1.51.06,2.27h11.42v-2.27Z"/></g></svg>