<?xml version="1.0" encoding="UTF-8"?><svg id="Layer_2" xmlns="http://www.w3.org/2000/svg" viewBox="0 0 689.05 669.78"><defs><style>.cls-1{stroke-width:0px;}.cls-1,.cls-2,.cls-3,.cls-4,.cls-5{fill:#000;}.cls-6,.cls-2,.cls-3,.cls-4,.cls-5,.cls-7{stroke-miterlimit:10;}.cls-6,.cls-2,.cls-3,.cls-4,.cls-7{stroke:#fff;}.cls-6,.cls-7{fill:#e38633;}.cls-2{stroke-width:.5px;}.cls-4,.cls-7{stroke-width:.75px;}.cls-5{stroke:#fcf5f5;}</style></defs><g id="Layer_9"><circle class="cls-6" cx="131.19" cy="86.51" r="16.7"/><path class="cls-3" d="M216.73,112.04l-12.62-5.41c1.76-6.41,2.73-13.15,2.73-20.12h-13.32c0,34.42-27.9,62.32-62.32,62.32s-62.32-27.9-62.32-62.32,27.9-62.32,62.32-62.32v-13.32c-6.19,0-12.2.76-17.96,2.16l-4.81-12.04-19.86,7.94,4.83,12.07c-11.1,6.42-20.43,15.56-27.04,26.54l-12.07-5.18-8.43,19.65,12.18,5.22c-1.62,6.15-2.49,12.61-2.49,19.27s.79,12.49,2.26,18.37l-12.55,5.02,7.94,19.86,12.7-5.08c6.38,10.9,15.41,20.07,26.21,26.6l-5.47,12.76,19.65,8.43,5.51-12.84c6.19,1.64,12.7,2.52,19.41,2.52,6.12,0,12.06-.75,17.76-2.12l5.21,13.03,19.86-7.94-5.2-13.01c10.92-6.28,20.13-15.19,26.74-25.89l12.73,5.46,8.43-19.65Z"/><path class="cls-4" d="M127.52,218.93c-29.32,0-57.09-9.41-80.3-27.21C24.76,174.49,8.15,150.07.46,122.97l12.77-3.62c14.41,50.81,61.41,86.3,114.29,86.3,4.5,0,10.33-.25,14.77-.75l-.09,13.47c-4.93.56-9.69.56-14.68.56Z"/><rect class="cls-3" x="145.03" y="210.59" width="11" height="81.57"/><path class="cls-4" d="M131.19,33.92c-29,0-52.59,23.59-52.59,52.6s23.59,52.59,52.59,52.59,52.59-23.59,52.59-52.59-23.59-52.6-52.59-52.6ZM93.53,90.47c.43,4.07,1.51,7.95,3.13,11.54l-8.91,3.91c-2.15-4.79-3.53-9.99-3.98-15.46h9.76ZM104.77,113.6c1.66,1.62,3.46,3.09,5.39,4.38l-5.5,8.03c-2.52-1.7-4.87-3.64-7.02-5.77l7.14-6.64ZM114.51,120.49c4.04,1.99,8.49,3.28,13.18,3.72v9.76c-6.72-.49-13.06-2.38-18.73-5.38l5.54-8.09ZM131.19,119.37c-18.12,0-32.86-14.74-32.86-32.86s14.74-32.86,32.86-32.86,32.86,14.74,32.86,32.86-14.74,32.86-32.86,32.86ZM90.04,110.39l8.98-3.94c1.1,1.76,2.33,3.43,3.69,4.98l-7.13,6.63c-2.09-2.36-3.95-4.93-5.54-7.66ZM134.69,133.97v-9.76c19.24-1.77,34.36-18,34.36-37.69,0-20.88-16.98-37.86-37.86-37.86s-36.17,15.36-37.73,34.82h-9.76c1.57-24.83,22.27-44.56,47.49-44.56s47.59,21.35,47.59,47.6-19.48,45.65-44.09,47.45Z"/><path class="cls-4" d="M133.63,294.85c-66.72-1.46-66.56-19.68-66.14-68.38l.02-2.32,6,.05-.02,2.32c-.42,48.07-.54,61,60.27,62.33l-.13,6Z"/><path class="cls-4" d="M132.62,280.56h-2.08c-22.44,0-34.9-2.89-41.65-9.66-7.5-7.52-7.47-19.22-7.43-35.4,0-1.3,0-2.64,0-4.01,0-1.59,1.29-2.89,2.89-2.89h48.26c1.59,0,2.89,1.29,2.89,2.89v46.19c0,1.59-1.29,2.89-2.89,2.89ZM85.47,232.6c0,.99,0,1.96,0,2.91-.04,15.79-.07,26.22,6.26,32.56,5.85,5.87,17.83,8.49,38.82,8.49h.96v-43.96h-46.04Z"/><path class="cls-7" d="M112.83,265.16h0c-19.44,0-19.05-2.53-19.05-21.17h0s19.05,0,19.05,0v21.17Z"/><rect class="cls-4" x="117.46" y="262.18" width="11.9" height=".52"/><rect class="cls-4" x="117.46" y="240.99" width="11.9" height="16.63"/><rect class="cls-4" x="117.46" y="259.69" width="11.9" height=".41"/><rect class="cls-4" x="117.46" y="264.78" width="11.9" height=".57"/><rect class="cls-4" x="117.46" y="266.48" width="11.9" height="1.7"/><rect class="cls-2" x="139.62" y="229.72" width="2" height="409.48"/><rect class="cls-4" x="125.43" y="298.95" width="8.14" height="145.01"/><rect class="cls-4" x="125.43" y="524.4" width="8.14" height="145.01"/><rect class="cls-3" x="492.43" y="-181.86" width="13.77" height="378.49" transform="translate(506.69 -491.93) rotate(90)"/><path class="cls-5" d="M89.51,518.24c-19,0-34.46-15.46-34.46-34.46s15.46-34.46,34.46-34.46,34.46,15.46,34.46,34.46-15.46,34.46-34.46,34.46ZM89.51,459.33c-13.48,0-24.46,10.97-24.46,24.46s10.97,24.46,24.46,24.46,24.46-10.97,24.46-24.46-10.97-24.46-24.46-24.46Z"/><circle class="cls-6" cx="89.51" cy="483.79" r="8.92"/><rect class="cls-3" x="71.03" y="405.11" width="34.74" height="2.64"/><rect class="cls-3" x="71.03" y="301.01" width="34.74" height="81.57"/><rect class="cls-3" x="71.03" y="423.74" width="34.74" height="8.69"/><rect class="cls-3" x="71.03" y="414.18" width="34.74" height="3.15"/><rect class="cls-3" x="71.03" y="392.53" width="34.74" height="2.64"/><rect class="cls-3" x="71.03" y="558.31" width="34.74" height="2.64"/><rect class="cls-3" x="71.03" y="583.48" width="34.74" height="81.57"/><rect class="cls-3" x="71.03" y="533.63" width="34.74" height="8.69"/><rect class="cls-3" x="71.03" y="548.74" width="34.74" height="3.15"/><rect class="cls-3" x="71.03" y="570.89" width="34.74" height="2.64"/><path class="cls-3" d="M306.18,24.76v-9.16h-83.17v83.17h9.77c.68-71.81,64.14-74.07,73.4-74.01Z"/><path class="cls-3" d="M140.31,19.01v-3.53h49.59v32.02h-3.76c-.26-27.65-42.26-28.52-45.83-28.5Z"/><rect class="cls-4" x="256.21" y=".5" width=".86" height="6.79"/><rect class="cls-4" x="253.92" y=".5" width=".76" height="6.79"/><rect class="cls-4" x="251.5" y=".5" width=".89" height="6.79"/><rect class="cls-4" x="242.07" y=".5" width="1.02" height="6.79"/><rect class="cls-4" x="246.78" y=".5" width="1.02" height="6.79"/><rect class="cls-4" x="258.6" y=".5" width=".83" height="6.79"/><rect class="cls-4" x="277.98" y=".5" width="27.63" height="6.79"/><rect class="cls-4" x="209.88" y=".5" width="23.77" height="6.79"/><rect class="cls-4" x="263.35" y=".5" width="1.15" height="6.79"/><rect class="cls-4" x="268.2" y=".5" width="1.27" height="6.79"/><path class="cls-3" d="M141.94,166.7h-21.93v14.69c-18.02-2.1-34.51-9.21-48.03-19.9l9.96-9.96-15.12-15.12-10.03,10.03c-11.01-13.65-18.33-30.39-20.48-48.72h13.63v-21.39h-13.74c.32-3.04.78-6.04,1.38-8.99h-17.6c-1.04,6.24-1.58,12.64-1.58,19.17,0,64.04,48.75,110.91,112.79,110.91,3.62,0,7.2-.17,10.73-.49v-7.94h.03s0-22.29,0-22.29Z"/><polygon class="cls-1" points="38.71 76.89 31.02 76.89 25.35 97.1 40.65 97.1 38.71 76.89"/><rect class="cls-3" x="193.11" y="15.47" width="26.28" height="45"/></g></svg>